<?xml version="1.0" encoding="UTF-8"?>
<!-- Generator: Adobe Illustrator 20.1.0, SVG Export Plug-In . SVG Version: 6.00 Build 0)  -->
<svg version="1.1" id="Layer_1" xmlns="http://www.w3.org/2000/svg" xmlns:xlink="http://www.w3.org/1999/xlink" x="0px" y="0px" width="180.6px" height="228.8px" viewBox="0 0 180.6 228.8" style="enable-background:new 0 0 180.6 228.8;" xml:space="preserve">
<style type="text/css">
	.st0{fill:#C3E088;}
	.st1{fill:#3FAE2A;}
	.st2{fill:#0084AD;}
	.st3{fill:#72B1C8;}
	.st4{fill:#A4D55D;}
	.st5{fill:#003B71;}
</style>
<g id="H_TAG">
</g>
<g id="H">
</g>
<g id="V_TAG">
</g>
<g id="V">
	<g id="FULL_COLOR_7_">
		<g>
			<path class="st0" d="M11.3,36.3c-9.1-10.3-9-23-8-24.6c0.2-0.1,0.9-0.3,2.3-0.3c4.5,0,14.8,2.3,21.9,11.2     c8.4,10.5,9.2,21,8.7,25.1c0.5,1.3,1,2.5,1.4,3.7c0.1,0,0.1-0.1,0.2-0.1c1.5-1.3,1.6-6.6,0.8-10.9c-0.8-4.8-3-12.1-8.9-19.5     C22,11.2,10.6,8.7,5.7,8.7c-2.3,0-3.8,0.5-4.5,1.3c-2.4,2.9-1.7,17.3,8,28.2C18.8,49,30.5,51.7,34.7,51.9C34.4,51,34,50,33.6,49     C29.1,48.4,19.4,45.4,11.3,36.3z"/>
			<path class="st0" d="M144.1,52.2c-3.1-0.9-6.3-1.4-9.5-1.4c-5.1,0-9.9,1.3-12.4,2.8c1.2,0.4,2.4,0.9,3.7,1.4     c2-0.7,5.1-1.4,8.8-1.4c2.9,0,5.9,0.4,8.7,1.3c8.3,2.5,9.2,7.5,8.7,10.2c-0.3,1.7-2.2,5.2-8.2,5.2c-1.6,0-3.3-0.3-5.2-1     c-9-3.3-13.6-9.3-15-12.2c-1.1-0.4-2.2-0.8-3.3-1.2c0.2,3.2,6,11.9,17.3,16c2.1,0.8,4.2,1.2,6.1,1.2c7.2,0,10.6-4.4,11-7.7     C155.2,62.5,154.8,55.4,144.1,52.2z"/>
		</g>
		<g>
			<path class="st1" d="M35.2,51.9c1.1,0,1.8-0.2,2.3-0.5c-0.4-1.2-0.9-2.4-1.4-3.7c-0.1,0.6-0.2,1.1-0.3,1.4c-0.1,0-0.3,0-0.6,0     c-0.4,0-1,0-1.6-0.1c0.4,1,0.8,2,1.1,2.9C34.9,51.9,35.1,51.9,35.2,51.9L35.2,51.9z"/>
			<path class="st1" d="M123.2,56.2c0.4-0.3,1.4-0.8,2.6-1.2c-1.2-0.5-2.4-1-3.7-1.4c-1,0.6-1.6,1.2-1.8,1.7     c-0.1,0.2-0.1,0.4-0.1,0.7c1.1,0.4,2.2,0.8,3.3,1.2C123.4,56.8,123.2,56.4,123.2,56.2z"/>
		</g>
		<g>
			<path class="st2" d="M48,84.7c-0.8,0-1.1-0.2-1.1-0.2c-0.2-0.1-0.4-0.5-0.5-0.9c-0.6,1-1.1,1.9-1.5,2.8c0.1,0.1,0.2,0.2,0.3,0.3     c0.5,0.4,1.3,0.7,2.3,0.8c0.5-0.9,1-1.9,1.5-2.8C48.6,84.7,48.2,84.7,48,84.7z"/>
			<path class="st2" d="M99.9,50c-0.4,0-0.9,0-1.3,0.1c-0.6,1-1.3,2-2,2.9c1.2-0.1,2.4-0.2,3.6-0.2c0.6-0.9,1.2-1.9,1.8-2.8     C101.2,50,100.6,50,99.9,50z"/>
			<path class="st2" d="M43.3,107.5c-0.4,0.8-0.7,1.6-0.7,1.8l0,0l0,0l0,0c0,0,0.9,1.4,2.3,2l0,0l0,0c0,0,0.2-0.6,0.5-1.3     c0.3-0.7,0.6-1.3,0.6-1.3l0,0l0,0l0,0c-1.3-0.7-1.8-2.8-1.8-2.8l0,0l0,0l0,0l0,0C44,105.9,43.7,106.6,43.3,107.5z"/>
			<path class="st2" d="M31.1,68.2c-0.6,0.2-1.2,0.3-1.3,0.4c0,0,0,0.7,0,1.5s0,1.3,0,1.3l0,0l0,0c0,0,0.8-0.1,1.4-0.3     c1-0.3,1.4-0.4,1.4-0.5l0,0c0,0,0-0.6,0-1.4s-0.1-1.6-0.1-1.6l0,0l0,0C32.5,67.6,31.8,68,31.1,68.2z"/>
		</g>
		<g>
			<path class="st3" d="M45.9,108.8c4.2-9.5,11.4-13.9,16.4-15.8c7.8-3.1,14.6-2.1,15.8-0.8c0.8,0.9,0.5,3.7-1.6,7.1     c-2.7,4.4-7.6,8.6-14.3,10.3c6.7-1.7,11.6-5.9,14.3-10.3c-2.7,4.4-7.6,8.6-14.3,10.3c-4.6,1.2-9.9,1.2-16.1-0.7     c0,0-0.1,0-0.1-0.1C46,108.8,45.9,108.8,45.9,108.8L45.9,108.8L45.9,108.8c0,0-0.3,0.6-0.5,1.3c-0.3,0.7-0.5,1.3-0.5,1.3     c0.2,0.1,0.3,0.1,0.5,0.2c7.5,2.3,14.8,2.1,21.2-0.6c5.1-2.1,9.5-5.9,12.3-10.2c2.7-4.3,3.2-8.4,1.3-10.5     c-2.4-2.6-10.6-3.2-18.9,0.1c-5.1,2-12.5,6.4-17.1,15.6l0,0C44.1,105.9,44.6,108.1,45.9,108.8z"/>
			<path class="st3" d="M46.3,83.6c0.2,0.5,0.3,0.8,0.5,0.9c0,0,0.3,0.2,1.1,0.2c0.3,0,0.6,0,1-0.1c3.5-6,9.1-12.7,17.5-19.2     C75.7,58.2,86,54,96.5,53c0.7-1,1.4-2,2-2.9c-12,0.7-23.7,5.2-33.8,13.1C56.2,69.8,50.2,76.9,46.3,83.6z"/>
			<path class="st3" d="M120.4,55.3c0.2-0.6,0.8-1.2,1.8-1.7c-6.6-2.4-13.4-3.6-20.2-3.6c-0.6,1-1.2,1.9-1.8,2.8     c6.7-0.2,13.5,0.8,20.2,3.1C120.3,55.7,120.3,55.5,120.4,55.3z"/>
			<path class="st3" d="M44.8,86.5c-3.6,7.2-4.7,13.8-3.7,18.9c0.3,1.6,0.8,3,1.5,4c0.1-0.2,0.4-1,0.7-1.8c0.4-0.9,0.8-1.6,0.8-1.6     l0,0c-0.1-0.3-0.2-0.7-0.3-1.1c-0.7-3.7-0.1-9.9,3.6-17.3c-1-0.1-1.8-0.3-2.3-0.8C45,86.7,44.9,86.6,44.8,86.5z"/>
			<path class="st3" d="M32.6,70.7c1.8-0.7,3.3-1.9,4.4-3.4c2.6-3.7,2.8-9.2,0.6-15.8c-0.5,0.3-1.2,0.5-2.3,0.5l0,0     c-0.1,0-0.3,0-0.5,0c2,5.9,2.1,10.7,0,13.7c-0.6,0.8-1.3,1.5-2.2,2c0,0,0.1,0.8,0.1,1.6C32.6,70.1,32.6,70.7,32.6,70.7z"/>
			<path class="st3" d="M29.8,71.4c0,0,0-0.5,0-1.3s0-1.5,0-1.5l0,0l0,0c-2,0.4-4.3,0.2-6.9-0.4c-7.5-2-12.5-7.7-13.5-12.4     C9,54,9.3,52.6,10.1,51.9c0.4-0.3,1-0.5,2-0.5c1.1,0,2.6,0.3,4.4,1c5.3,2.1,12,7.6,13.3,16.2l0,0l0,0c-1.3-8.6-8-14.1-13.3-16.2     c5.3,2.1,12,7.6,13.3,16.2l0,0c0.1,0,0.7-0.1,1.3-0.4c0.7-0.2,1.4-0.6,1.4-0.6l0,0c-1.6-9.4-9-15.5-15-17.8     c-3.9-1.5-7.3-1.5-9.1,0c-1.7,1.4-2.3,3.8-1.7,6.6c1.7,7.6,9.2,12.9,15.5,14.5c1,0.3,2.1,0.5,3,0.6c-1-0.1-2-0.3-3-0.6     c1,0.3,2.1,0.5,3,0.6C26.9,71.7,28.4,71.7,29.8,71.4L29.8,71.4L29.8,71.4L29.8,71.4z"/>
		</g>
		<g>
			<path class="st4" d="M28.8,36.8c0.3,0.4,0.6,0.9,0.8,1.4c0.4,1.2,0.2,2.4-0.4,3.4c2,2.4,3.4,5,4.4,7.4c0.6,0.1,1.2,0.1,1.6,0.1     c0.3,0,0.5,0,0.6,0c0.1-0.3,0.2-0.8,0.3-1.4C34.6,44.2,31.9,40.4,28.8,36.8z"/>
			<path class="st4" d="M29.6,38.2c-0.2-0.5-0.4-1-0.8-1.4l-0.1-0.1l0,0c-1.1-1.2-2.8-1.7-4.4-1.2c-2.2,0.7-3.5,3.1-2.8,5.3     s3.1,3.5,5.3,2.8c1-0.3,1.9-1,2.4-1.9C29.8,40.6,29.9,39.4,29.6,38.2z"/>
			<path class="st4" d="M137.2,61.6c-0.2-0.6-0.3-1.1-0.3-1.7v-0.1c-4.1-1.7-7.3-3.2-11.1-4.8c-1.3,0.4-2.2,0.9-2.6,1.2     c0.1,0.2,0.2,0.6,0.4,1c5,2.3,9.6,4.5,15.6,6.6C138.3,63.3,137.6,62.6,137.2,61.6z"/>
			<path class="st4" d="M145.1,58.5c-0.8-2.2-3.3-3.2-5.5-2.4c-1.6,0.6-2.6,2.1-2.7,3.7v0.1c0,0.6,0.1,1.1,0.3,1.7     c0.4,1,1.1,1.7,1.9,2.2c0.1,0.1,0.3,0.2,0.5,0.2c1,0.4,2,0.4,3.1,0C144.9,63.2,145.9,60.7,145.1,58.5z"/>
			<path class="st4" d="M52,164.6h3.7v-32.8H52v-4h8.1v3.1c2-2,4.1-3.5,7.5-3.5c6.2,0,11,4.9,11,12c0,6.8-4.7,12.3-11.4,12.3     c-2.7,0-5-1-6.9-2.5v15.5h4.2v3.9H52V164.6z M73.7,139.4c0-4.9-3-8-7-8c-2.7,0-4.7,1.3-6.4,3v11c1.6,1.3,3.7,2.2,6.3,2.2     C70.6,147.6,73.7,144.4,73.7,139.4z"/>
			<path class="st4" d="M80,145c0-4.3,3.8-7.1,9.2-7.1c2.5,0,5.2,0.5,6.4,0.9v-2.7c0-1.4-0.4-2.5-1-3.3c-1-1.2-2.6-1.8-4.9-1.8     c-1.5,0-2.3,0.3-3.1,0.7c0.2,0.4,0.3,0.9,0.3,1.3c0,1.5-1.1,2.7-2.7,2.7s-2.8-1.1-2.8-2.8c0-2.8,3.1-5.7,9-5.7     c3.7,0,6.3,1.1,7.9,2.9c1.2,1.4,1.8,3.3,1.8,5.4v11.7h3.7v3.9h-8v-2.8c-1.9,1.8-4.9,3.3-8.1,3.3C83.4,151.7,80,149.2,80,145z      M95.7,145.4v-3.8c-1.6-0.4-3.6-0.8-5.7-0.8c-3.3,0-5.2,1.6-5.2,3.9c0,2.1,1.6,3.5,4.3,3.5C91.6,148.1,93.9,146.9,95.7,145.4z"/>
			<path class="st4" d="M125,130.8c0,1.7-1.4,3.2-3,3.2s-2.7-1-3.1-2c-1.7,0.5-3.8,2.5-4.9,4.7v10.7h4.3v3.9h-12.6v-3.9h3.7v-15.5     h-3.7v-4h8.1v5.3c1.9-3.2,4.6-5.8,7.3-5.8C123.7,127.3,125,128.9,125,130.8z"/>
			<path class="st4" d="M124,147.3h2.7v-33.1H123v-4h8.3V139l8.5-7.4h-4v-3.8h13.5v4H145l-6.5,5.6l6.7,9.8h4.1v4h-6.9L135,140     l-3.8,3.3v4.1h2.5v3.9h-9.9v-4H124z"/>
			<path class="st4" d="M95.2,54.8c-13.6,17.9-37.8,29-46.3,29.8c-0.6,1-1.1,1.9-1.5,2.8c0.2,0,0.4,0,0.6,0l0,0     c8.9,0,35.1-12.1,49.5-31c0.9-1.2,1.8-2.5,2.6-3.7c-1.2,0-2.4,0.1-3.6,0.2C96.1,53.6,95.7,54.2,95.2,54.8z"/>
			<path class="st4" d="M46.6,66.5c1.3-7,4.9-20.8,14.6-34.3C76.9,10.3,98,2.9,105.2,2.9c1.3,0,1.8,0.2,2,0.3     c0.4,0.2,1.2,1.2,1.9,3.9c2,8.3,0.5,25.9-10.5,43c0.4,0,0.9-0.1,1.3-0.1c0.7,0,1.4,0,2.1,0c4.2-6.9,7.3-14.4,9.1-22.1     c1.8-7.9,2.1-15.9,0.8-21.5c-0.7-3.1-1.9-5-3.4-5.8c-0.8-0.4-1.9-0.6-3.2-0.6c-4,0-11.5,1.8-20.5,7c-6.9,4-16.9,11.2-25.7,23.5     c-16.8,23.2-18.7,51.2-14.3,56c0.5-0.9,1-1.9,1.5-2.8C45.5,81.3,45.1,75.1,46.6,66.5z"/>
		</g>
		<g>
			<g>
				<g>
					<circle class="st5" cx="49.2" cy="224.7" r="1.4"/>
				</g>
			</g>
			<g>
				<g>
					<circle class="st5" cx="57.3" cy="224.7" r="1.4"/>
				</g>
			</g>
			<g>
				<g>
					<circle class="st5" cx="65.4" cy="224.7" r="1.4"/>
				</g>
			</g>
			<g>
				<g>
					<circle class="st5" cx="73.6" cy="224.7" r="1.4"/>
				</g>
			</g>
			<g>
				<g>
					<circle class="st5" cx="81.7" cy="224.7" r="1.4"/>
				</g>
			</g>
			<g>
				<g>
					<circle class="st5" cx="89.8" cy="224.7" r="1.4"/>
				</g>
			</g>
			<g>
				<g>
					<circle class="st5" cx="97.9" cy="224.7" r="1.4"/>
				</g>
			</g>
			<g>
				<g>
					<circle class="st5" cx="106.1" cy="224.7" r="1.4"/>
				</g>
			</g>
			<g>
				<g>
					<circle class="st5" cx="114.2" cy="224.7" r="1.4"/>
				</g>
			</g>
			<g>
				<g>
					<circle class="st5" cx="122.3" cy="224.7" r="1.4"/>
				</g>
			</g>
			<g>
				<g>
					<circle class="st5" cx="130.5" cy="224.7" r="1.4"/>
				</g>
			</g>
			<g>
				<g>
					<circle class="st5" cx="138.6" cy="224.7" r="1.4"/>
				</g>
			</g>
			<g>
				<g>
					<circle class="st5" cx="146.7" cy="224.7" r="1.4"/>
				</g>
			</g>
			<g>
				<g>
					<circle class="st5" cx="154.8" cy="224.7" r="1.4"/>
				</g>
			</g>
			<g>
				<g>
					<circle class="st5" cx="162.9" cy="224.7" r="1.4"/>
				</g>
			</g>
			<g>
				<g>
					<circle class="st5" cx="171.1" cy="224.7" r="1.4"/>
				</g>
			</g>
			<g>
				<g>
					<circle class="st5" cx="179.2" cy="224.7" r="1.4"/>
				</g>
			</g>
			<path class="st5" d="M52.1,208.7h3.7v-33.9h-3.7v-3.3h7.4v3.3c2-2.2,4.3-3.8,7.8-3.8c6.1,0,11,4.8,11,11.9     c0,6.5-4.5,12.2-11.4,12.2c-2.7,0-5.3-1-7.2-2.7v16.3h4.5v3.3H52.1V208.7z M74.3,183c0.1-5.2-3.2-8.7-7.6-8.7     c-3,0-5.2,1.5-7.1,3.4v11.5c1.7,1.5,4,2.6,7,2.6C71.1,191.8,74.2,188.1,74.3,183z"/>
			<path class="st5" d="M97,174.1c0,1.5-1.1,2.8-2.6,2.8c-1.4,0-2.4-0.9-2.8-2c-1.7,0.5-3.9,2.6-5,4.9v11.6H91v3.3H79.2v-3.3h3.7     v-16.6h-3.7v-3.3h7.3v5.3c1.8-3.2,4.6-5.7,7.1-5.7C95.8,171,97,172.5,97,174.1z"/>
			<path class="st5" d="M99.5,191.4h3.9v-16.6h-3.9v-3.3h7.7v19.9h3.9v3.3H99.5C99.5,194.7,99.5,191.4,99.5,191.4z M101.8,162.5     c0-1.6,1.4-3.1,3.1-3.1c1.6,0,2.9,1.4,2.9,3.1c0,1.6-1.4,3-3,3S101.8,164.1,101.8,162.5z"/>
			<path class="st5" d="M111.3,183.2c0-6.6,4.5-12.2,11.5-12.2c2.9,0,5.4,1.1,7.2,2.8v-16.6h-5.8v-3.3h9.6v37.5h3.8v3.3h-7.4v-3.3     c-2,2.2-4.4,3.7-7.8,3.7C116.2,195.1,111.3,190.3,111.3,183.2z M130,188.3v-11.4c-1.7-1.5-3.9-2.7-7-2.7c-4.6,0-7.8,3.8-7.8,8.9     c-0.1,5.2,3.2,8.7,7.6,8.7C125.9,191.8,128.2,190.3,130,188.3z"/>
			<path class="st5" d="M140.9,184.1c0.5,5.1,3.9,7.6,8.9,7.6c3.1,0,5.5-1,8.2-2.6l-0.3,3.7c-2.4,1.5-5.4,2.2-8.3,2.2     c-7.4,0-12.4-4.9-12.4-12c0-6.4,4.3-12.1,11.4-12.1c6.9,0,10.6,5.2,10.6,11c0,0.9-0.1,1.6-0.2,2.2L140.9,184.1L140.9,184.1z      M140.9,181.2h14.2c-0.3-4.1-2.6-6.9-7-6.9C144.6,174.2,141.5,176.7,140.9,181.2z"/>
			<path class="st5" d="M42.6,109.4L42.6,109.4c-1.8,4.6-2.8,10.2-2.8,17.1v81.9c0,4.8-1.8,9.5-4.9,13.2l-1.8,2.1l-0.5-153     c0,0-0.4,0.2-1.4,0.5c-0.6,0.2-1.4,0.3-1.4,0.3l0,0l0.3,155.9L29.8,71.5l0,0l0.3,155.9c0,0.6,0.4,1.1,0.9,1.3     c0.2,0.1,0.3,0.1,0.5,0.1c0.4,0,0.8-0.2,1.1-0.5l4.3-4.9c3.6-4.2,5.6-9.5,5.6-15v-81.9c0-6,0.9-10.9,2.3-15.1     C43.4,110.8,42.6,109.4,42.6,109.4z"/>
		</g>
	</g>
</g>
</svg>